<?xml version="1.0" encoding="UTF-8" standalone="no"?>
<!DOCTYPE svg PUBLIC "-//W3C//DTD SVG 1.1//EN"
 "http://www.w3.org/Graphics/SVG/1.1/DTD/svg11.dtd">
<!-- Generated by graphviz version 2.26.3 (20100126.1600)
 -->
<!-- Title: Pipeline Pages: 1 -->
<svg width="594pt" height="272pt"
 viewBox="0.00 0.00 594.00 272.00" xmlns="http://www.w3.org/2000/svg" xmlns:xlink="http://www.w3.org/1999/xlink">
<g id="graph1" class="graph" transform="scale(1 1) rotate(0) translate(4 268)">
<title>Pipeline</title>
<polygon fill="white" stroke="white" points="-4,5 -4,-268 591,-268 591,5 -4,5"/>
<g id="graph2" class="cluster"><title>cluster_cons</title>
<polygon fill="none" stroke="black" points="128,-166 128,-256 254,-256 254,-166 128,-166"/>
</g>
<g id="graph3" class="cluster"><title>cluster_for</title>
<polygon fill="none" stroke="black" points="8,-38 8,-188 104,-188 104,-38 8,-38"/>
</g>
<g id="graph4" class="cluster"><title>cluster_in</title>
<polygon fill="none" stroke="black" points="112,-8 112,-158 270,-158 270,-8 112,-8"/>
</g>
<g id="graph5" class="cluster"><title>cluster_view</title>
<polygon fill="none" stroke="black" points="434,-8 434,-98 578,-98 578,-8 434,-8"/>
</g>
<g id="graph6" class="cluster"><title>cluster_o</title>
<polygon fill="none" stroke="black" points="278,-8 278,-128 426,-128 426,-8 278,-8"/>
</g>
<!-- node_cons -->
<g id="node2" class="node"><title>node_cons</title>
<polygon fill="palegreen" stroke="black" stroke-width="2" points="245,-248 137,-248 137,-244 133,-244 133,-240 137,-240 137,-212 133,-212 133,-208 137,-208 137,-204 245,-204 245,-248"/>
<polyline fill="none" stroke="black" stroke-width="2" points="137,-244 141,-244 141,-240 137,-240 "/>
<polyline fill="none" stroke="black" stroke-width="2" points="137,-212 141,-212 141,-208 137,-208 "/>
<text text-anchor="middle" x="191" y="-231.4" font-family="Times Roman,serif" font-size="14.00">cons</text>
<text text-anchor="middle" x="191" y="-213.4" font-family="Times Roman,serif" font-size="14.00">[gsp:Console]</text>
</g>
<!-- cons#info -->
<g id="node3" class="node"><title>cons#info</title>
<polygon fill="plum" stroke="black" points="218,-200 164,-200 164,-174 218,-174 218,-200"/>
<text text-anchor="middle" x="191" y="-183.4" font-family="Times Roman,serif" font-size="14.00">info</text>
</g>
<!-- node_for -->
<g id="node5" class="node"><title>node_for</title>
<polygon fill="palegreen" stroke="black" stroke-width="2" points="94,-180 18,-180 18,-176 14,-176 14,-172 18,-172 18,-144 14,-144 14,-140 18,-140 18,-136 94,-136 94,-180"/>
<polyline fill="none" stroke="black" stroke-width="2" points="18,-176 22,-176 22,-172 18,-172 "/>
<polyline fill="none" stroke="black" stroke-width="2" points="18,-144 22,-144 22,-140 18,-140 "/>
<text text-anchor="middle" x="56" y="-163.4" font-family="Times Roman,serif" font-size="14.00">for</text>
<text text-anchor="middle" x="56" y="-145.4" font-family="Times Roman,serif" font-size="14.00">[gsp:For]</text>
</g>
<!-- for#i -->
<g id="node6" class="node"><title>for#i</title>
<polygon fill="#b9d3ee" stroke="black" points="83,-132 29,-132 29,-106 83,-106 83,-132"/>
<text text-anchor="middle" x="56" y="-115.4" font-family="Times Roman,serif" font-size="14.00">i</text>
</g>
<!-- for#i&#45;&gt;cons#info -->
<g id="edge7" class="edge"><title>for#i&#45;&gt;cons#info</title>
<path fill="none" stroke="black" d="M83.2968,-124.057C90.7917,-126.582 98.3898,-130.358 104,-136 111.631,-143.675 104.37,-151.325 112,-159 123.169,-170.235 139.127,-176.979 153.781,-181.018"/>
<polygon fill="black" stroke="black" points="153.099,-184.454 163.642,-183.405 154.746,-177.651 153.099,-184.454"/>
</g>
<!-- for#output -->
<g id="node7" class="node"><title>for#output</title>
<polygon fill="#b9d3ee" stroke="black" points="87,-102 25,-102 25,-76 87,-76 87,-102"/>
<text text-anchor="middle" x="56" y="-85.4" font-family="Times Roman,serif" font-size="14.00">output</text>
</g>
<!-- in#input -->
<g id="node11" class="node"><title>in#input</title>
<polygon fill="plum" stroke="black" points="218,-102 164,-102 164,-76 218,-76 218,-102"/>
<text text-anchor="middle" x="191" y="-85.4" font-family="Times Roman,serif" font-size="14.00">input</text>
</g>
<!-- for#output&#45;&gt;in#input -->
<g id="edge9" class="edge"><title>for#output&#45;&gt;in#input</title>
<path fill="none" stroke="black" d="M87.6515,-89C107.386,-89 132.879,-89 153.608,-89"/>
<polygon fill="black" stroke="black" points="153.655,-92.5001 163.655,-89 153.655,-85.5001 153.655,-92.5001"/>
</g>
<!-- for#interrupt -->
<g id="node8" class="node"><title>for#interrupt</title>
<polygon fill="plum" stroke="black" points="95,-72 17,-72 17,-46 95,-46 95,-72"/>
<text text-anchor="middle" x="56" y="-55.4" font-family="Times Roman,serif" font-size="14.00">interrupt</text>
</g>
<!-- node_in -->
<g id="node10" class="node"><title>node_in</title>
<polygon fill="palegreen" stroke="black" stroke-width="2" points="262,-150 120,-150 120,-146 116,-146 116,-142 120,-142 120,-114 116,-114 116,-110 120,-110 120,-106 262,-106 262,-150"/>
<polyline fill="none" stroke="black" stroke-width="2" points="120,-146 124,-146 124,-142 120,-142 "/>
<polyline fill="none" stroke="black" stroke-width="2" points="120,-114 124,-114 124,-110 120,-110 "/>
<text text-anchor="middle" x="191" y="-133.4" font-family="Times Roman,serif" font-size="14.00">in</text>
<text text-anchor="middle" x="191" y="-115.4" font-family="Times Roman,serif" font-size="14.00">[gst:ImageSource]</text>
</g>
<!-- in#output -->
<g id="node12" class="node"><title>in#output</title>
<polygon fill="#b9d3ee" stroke="black" points="222,-72 160,-72 160,-46 222,-46 222,-72"/>
<text text-anchor="middle" x="191" y="-55.4" font-family="Times Roman,serif" font-size="14.00">output</text>
</g>
<!-- o#input -->
<g id="node19" class="node"><title>o#input</title>
<polygon fill="plum" stroke="black" points="379,-72 325,-72 325,-46 379,-46 379,-72"/>
<text text-anchor="middle" x="352" y="-55.4" font-family="Times Roman,serif" font-size="14.00">input</text>
</g>
<!-- in#output&#45;&gt;o#input -->
<g id="edge11" class="edge"><title>in#output&#45;&gt;o#input</title>
<path fill="none" stroke="black" d="M222.808,-59C249.218,-59 286.827,-59 314.661,-59"/>
<polygon fill="black" stroke="black" points="314.807,-62.5001 324.807,-59 314.807,-55.5001 314.807,-62.5001"/>
</g>
<!-- in#end -->
<g id="node13" class="node"><title>in#end</title>
<polygon fill="#b9d3ee" stroke="black" points="218,-42 164,-42 164,-16 218,-16 218,-42"/>
<text text-anchor="middle" x="191" y="-25.4" font-family="Times Roman,serif" font-size="14.00">end</text>
</g>
<!-- in#end&#45;&gt;for#interrupt -->
<g id="edge15" class="edge"><title>in#end&#45;&gt;for#interrupt</title>
<path fill="none" stroke="black" d="M163.92,-34.7145C148.658,-37.9634 129.251,-42.1419 112,-46 109.945,-46.4595 107.849,-46.9315 105.732,-47.4109"/>
<polygon fill="black" stroke="black" points="104.722,-44.0513 95.7518,-49.6885 106.28,-50.8759 104.722,-44.0513"/>
</g>
<!-- node_view -->
<g id="node15" class="node"><title>node_view</title>
<polygon fill="palegreen" stroke="black" stroke-width="2" points="570,-90 442,-90 442,-86 438,-86 438,-82 442,-82 442,-54 438,-54 438,-50 442,-50 442,-46 570,-46 570,-90"/>
<polyline fill="none" stroke="black" stroke-width="2" points="442,-86 446,-86 446,-82 442,-82 "/>
<polyline fill="none" stroke="black" stroke-width="2" points="442,-54 446,-54 446,-50 442,-50 "/>
<text text-anchor="middle" x="506" y="-73.4" font-family="Times Roman,serif" font-size="14.00">view</text>
<text text-anchor="middle" x="506" y="-55.4" font-family="Times Roman,serif" font-size="14.00">[vid:ImageView]</text>
</g>
<!-- view#input -->
<g id="node16" class="node"><title>view#input</title>
<polygon fill="plum" stroke="black" points="533,-42 479,-42 479,-16 533,-16 533,-42"/>
<text text-anchor="middle" x="506" y="-25.4" font-family="Times Roman,serif" font-size="14.00">input</text>
</g>
<!-- node_o -->
<g id="node18" class="node"><title>node_o</title>
<polygon fill="palegreen" stroke="black" stroke-width="2" points="418,-120 286,-120 286,-116 282,-116 282,-112 286,-112 286,-84 282,-84 282,-80 286,-80 286,-76 418,-76 418,-120"/>
<polyline fill="none" stroke="black" stroke-width="2" points="286,-116 290,-116 290,-112 286,-112 "/>
<polyline fill="none" stroke="black" stroke-width="2" points="286,-84 290,-84 290,-80 286,-80 "/>
<text text-anchor="middle" x="352" y="-103.4" font-family="Times Roman,serif" font-size="14.00">o</text>
<text text-anchor="middle" x="352" y="-85.4" font-family="Times Roman,serif" font-size="14.00">[my:OverlayInfo]</text>
</g>
<!-- o#output -->
<g id="node20" class="node"><title>o#output</title>
<polygon fill="#b9d3ee" stroke="black" points="383,-42 321,-42 321,-16 383,-16 383,-42"/>
<text text-anchor="middle" x="352" y="-25.4" font-family="Times Roman,serif" font-size="14.00">output</text>
</g>
<!-- o#output&#45;&gt;view#input -->
<g id="edge13" class="edge"><title>o#output&#45;&gt;view#input</title>
<path fill="none" stroke="black" d="M383.536,-29C408.208,-29 442.582,-29 468.634,-29"/>
<polygon fill="black" stroke="black" points="468.881,-32.5001 478.881,-29 468.881,-25.5001 468.881,-32.5001"/>
</g>
</g>
</svg>
