<?xml version="1.0" encoding="UTF-8" standalone="no"?>
<!DOCTYPE svg PUBLIC "-//W3C//DTD SVG 1.0//EN"
 "http://www.w3.org/TR/2001/REC-SVG-20010904/DTD/svg10.dtd" [
 <!ATTLIST svg xmlns:xlink CDATA #FIXED "http://www.w3.org/1999/xlink">
]>
<!-- Generated by Graphviz version 2.20.2 (Tue Mar &#160;2 19:03:41 UTC 2010)
     For user: (remonet) Remi Emonet -->
<!-- Title: Pipeline Pages: 1 -->
<svg width="622pt" height="284pt"
 viewBox="0.00 0.00 622.00 284.00" xmlns="http://www.w3.org/2000/svg" xmlns:xlink="http://www.w3.org/1999/xlink">
<g id="graph0" class="graph" transform="scale(1 1) rotate(0) translate(4 280)">
<title>Pipeline</title>
<polygon style="fill:white;stroke:white;" points="-4,4 -4,-280 618,-280 618,4 -4,4"/>
<g id="cluster2" class="cluster"><title>cluster_cons</title>
<polygon style="fill:none;stroke:black;" points="127,-182 127,-268 251,-268 251,-182 127,-182"/>
</g>
<g id="cluster3" class="cluster"><title>cluster_for</title>
<polygon style="fill:none;stroke:black;" points="8,-60 8,-202 102,-202 102,-60 8,-60"/>
</g>
<g id="cluster4" class="cluster"><title>cluster_in</title>
<polygon style="fill:none;stroke:black;" points="110,-32 110,-174 268,-174 268,-32 110,-32"/>
</g>
<g id="cluster5" class="cluster"><title>cluster_view</title>
<polygon style="fill:none;stroke:black;" points="293,-142 293,-228 437,-228 437,-142 293,-142"/>
</g>
<g id="cluster6" class="cluster"><title>cluster_view2</title>
<polygon style="fill:none;stroke:black;" points="462,-102 462,-188 606,-188 606,-102 462,-102"/>
</g>
<g id="cluster7" class="cluster"><title>cluster_save</title>
<polygon style="fill:none;stroke:black;" points="462,-8 462,-94 606,-94 606,-8 462,-8"/>
</g>
<g id="cluster8" class="cluster"><title>cluster_tr</title>
<polygon style="fill:none;stroke:black;" points="276,-20 276,-134 454,-134 454,-20 276,-20"/>
</g>
<!-- node_cons -->
<g id="node2" class="node"><title>node_cons</title>
<polygon style="fill:palegreen;stroke:black;stroke-width:2;" points="243,-260 135,-260 135,-256 131,-256 131,-252 135,-252 135,-226 131,-226 131,-222 135,-222 135,-218 243,-218 243,-260"/>
<polyline style="fill:none;stroke:black;stroke-width:2;" points="135,-256 139,-256 139,-252 135,-252 "/>
<polyline style="fill:none;stroke:black;stroke-width:2;" points="135,-226 139,-226 139,-222 135,-222 "/>
<text text-anchor="middle" x="189" y="-243.4" style="font-family:Times New Roman;font-size:14.00;">cons</text>
<text text-anchor="middle" x="189" y="-226.4" style="font-family:Times New Roman;font-size:14.00;">[gsp:Console]</text>
</g>
<!-- cons#info -->
<g id="node3" class="node"><title>cons#info</title>
<polygon style="fill:plum;stroke:black;" points="216,-214.5 162,-214.5 162,-189.5 216,-189.5 216,-214.5"/>
<text text-anchor="middle" x="189" y="-197.9" style="font-family:Times New Roman;font-size:14.00;">info</text>
</g>
<!-- node_for -->
<g id="node5" class="node"><title>node_for</title>
<polygon style="fill:palegreen;stroke:black;stroke-width:2;" points="93,-194 17,-194 17,-190 13,-190 13,-186 17,-186 17,-160 13,-160 13,-156 17,-156 17,-152 93,-152 93,-194"/>
<polyline style="fill:none;stroke:black;stroke-width:2;" points="17,-190 21,-190 21,-186 17,-186 "/>
<polyline style="fill:none;stroke:black;stroke-width:2;" points="17,-160 21,-160 21,-156 17,-156 "/>
<text text-anchor="middle" x="55" y="-177.4" style="font-family:Times New Roman;font-size:14.00;">for</text>
<text text-anchor="middle" x="55" y="-160.4" style="font-family:Times New Roman;font-size:14.00;">[gsp:For]</text>
</g>
<!-- for#i -->
<g id="node6" class="node"><title>for#i</title>
<polygon style="fill:#b9d3ee;stroke:black;" points="82,-148.5 28,-148.5 28,-123.5 82,-123.5 82,-148.5"/>
<text text-anchor="middle" x="55" y="-131.9" style="font-family:Times New Roman;font-size:14.00;">i</text>
</g>
<!-- for#i&#45;&gt;cons#info -->
<g id="edge9" class="edge"><title>for#i&#45;&gt;cons#info</title>
<path style="fill:none;stroke:black;" d="M82,-140C89,-143 97,-146 102,-152 110,-159 103,-167 110,-175 121,-186 137,-192 152,-196"/>
<polygon style="fill:black;stroke:black;" points="151.416,-199.479 162,-199 153.427,-192.774 151.416,-199.479"/>
</g>
<!-- for#output -->
<g id="node7" class="node"><title>for#output</title>
<polygon style="fill:#b9d3ee;stroke:black;" points="86,-120.5 24,-120.5 24,-95.5 86,-95.5 86,-120.5"/>
<text text-anchor="middle" x="55" y="-103.9" style="font-family:Times New Roman;font-size:14.00;">output</text>
</g>
<!-- in#input -->
<g id="node11" class="node"><title>in#input</title>
<polygon style="fill:plum;stroke:black;" points="216,-120.5 162,-120.5 162,-95.5 216,-95.5 216,-120.5"/>
<text text-anchor="middle" x="189" y="-103.9" style="font-family:Times New Roman;font-size:14.00;">input</text>
</g>
<!-- for#output&#45;&gt;in#input -->
<g id="edge11" class="edge"><title>for#output&#45;&gt;in#input</title>
<path style="fill:none;stroke:black;" d="M87,-108C107,-108 131,-108 152,-108"/>
<polygon style="fill:black;stroke:black;" points="152,-111.5 162,-108 152,-104.5 152,-111.5"/>
</g>
<!-- for#interrupt -->
<g id="node8" class="node"><title>for#interrupt</title>
<polygon style="fill:plum;stroke:black;" points="94,-92.5 16,-92.5 16,-67.5 94,-67.5 94,-92.5"/>
<text text-anchor="middle" x="55" y="-75.9" style="font-family:Times New Roman;font-size:14.00;">interrupt</text>
</g>
<!-- node_in -->
<g id="node10" class="node"><title>node_in</title>
<polygon style="fill:palegreen;stroke:black;stroke-width:2;" points="259,-166 119,-166 119,-162 115,-162 115,-158 119,-158 119,-132 115,-132 115,-128 119,-128 119,-124 259,-124 259,-166"/>
<polyline style="fill:none;stroke:black;stroke-width:2;" points="119,-162 123,-162 123,-158 119,-158 "/>
<polyline style="fill:none;stroke:black;stroke-width:2;" points="119,-132 123,-132 123,-128 119,-128 "/>
<text text-anchor="middle" x="189" y="-149.4" style="font-family:Times New Roman;font-size:14.00;">in</text>
<text text-anchor="middle" x="189" y="-132.4" style="font-family:Times New Roman;font-size:14.00;">[gst:ImageSource]</text>
</g>
<!-- in#output -->
<g id="node12" class="node"><title>in#output</title>
<polygon style="fill:#b9d3ee;stroke:black;" points="220,-92.5 158,-92.5 158,-67.5 220,-67.5 220,-92.5"/>
<text text-anchor="middle" x="189" y="-75.9" style="font-family:Times New Roman;font-size:14.00;">output</text>
</g>
<!-- view#input -->
<g id="node16" class="node"><title>view#input</title>
<polygon style="fill:plum;stroke:black;" points="392,-174.5 338,-174.5 338,-149.5 392,-149.5 392,-174.5"/>
<text text-anchor="middle" x="365" y="-157.9" style="font-family:Times New Roman;font-size:14.00;">input</text>
</g>
<!-- in#output&#45;&gt;view#input -->
<g id="edge13" class="edge"><title>in#output&#45;&gt;view#input</title>
<path style="fill:none;stroke:black;" d="M221,-79C237,-80 256,-84 268,-96 281,-108 265,-121 276,-135 289,-149 310,-156 328,-159"/>
<polygon style="fill:black;stroke:black;" points="327.508,-162.471 338,-161 328.881,-155.607 327.508,-162.471"/>
</g>
<!-- tr#input -->
<g id="node25" class="node"><title>tr#input</title>
<polygon style="fill:plum;stroke:black;" points="392,-80.5 338,-80.5 338,-55.5 392,-55.5 392,-80.5"/>
<text text-anchor="middle" x="365" y="-63.9" style="font-family:Times New Roman;font-size:14.00;">input</text>
</g>
<!-- in#output&#45;&gt;tr#input -->
<g id="edge15" class="edge"><title>in#output&#45;&gt;tr#input</title>
<path style="fill:none;stroke:black;" d="M221,-78C252,-75 296,-73 328,-71"/>
<polygon style="fill:black;stroke:black;" points="328.398,-74.4778 338,-70 327.701,-67.5125 328.398,-74.4778"/>
</g>
<!-- in#end -->
<g id="node13" class="node"><title>in#end</title>
<polygon style="fill:#b9d3ee;stroke:black;" points="216,-64.5 162,-64.5 162,-39.5 216,-39.5 216,-64.5"/>
<text text-anchor="middle" x="189" y="-47.9" style="font-family:Times New Roman;font-size:14.00;">end</text>
</g>
<!-- in#end&#45;&gt;for#interrupt -->
<g id="edge21" class="edge"><title>in#end&#45;&gt;for#interrupt</title>
<path style="fill:none;stroke:black;" d="M162,-58C147,-61 128,-65 110,-68 108,-68 106,-69 104,-70"/>
<polygon style="fill:black;stroke:black;" points="103.119,-66.6067 94,-72 104.492,-73.4708 103.119,-66.6067"/>
</g>
<!-- node_view -->
<g id="node15" class="node"><title>node_view</title>
<polygon style="fill:palegreen;stroke:black;stroke-width:2;" points="429,-220 301,-220 301,-216 297,-216 297,-212 301,-212 301,-186 297,-186 297,-182 301,-182 301,-178 429,-178 429,-220"/>
<polyline style="fill:none;stroke:black;stroke-width:2;" points="301,-216 305,-216 305,-212 301,-212 "/>
<polyline style="fill:none;stroke:black;stroke-width:2;" points="301,-186 305,-186 305,-182 301,-182 "/>
<text text-anchor="middle" x="365" y="-203.4" style="font-family:Times New Roman;font-size:14.00;">view</text>
<text text-anchor="middle" x="365" y="-186.4" style="font-family:Times New Roman;font-size:14.00;">[vid:ImageView]</text>
</g>
<!-- node_view2 -->
<g id="node18" class="node"><title>node_view2</title>
<polygon style="fill:palegreen;stroke:black;stroke-width:2;" points="598,-180 470,-180 470,-176 466,-176 466,-172 470,-172 470,-146 466,-146 466,-142 470,-142 470,-138 598,-138 598,-180"/>
<polyline style="fill:none;stroke:black;stroke-width:2;" points="470,-176 474,-176 474,-172 470,-172 "/>
<polyline style="fill:none;stroke:black;stroke-width:2;" points="470,-146 474,-146 474,-142 470,-142 "/>
<text text-anchor="middle" x="534" y="-163.4" style="font-family:Times New Roman;font-size:14.00;">view2</text>
<text text-anchor="middle" x="534" y="-146.4" style="font-family:Times New Roman;font-size:14.00;">[vid:ImageView]</text>
</g>
<!-- view2#input -->
<g id="node19" class="node"><title>view2#input</title>
<polygon style="fill:plum;stroke:black;" points="561,-134.5 507,-134.5 507,-109.5 561,-109.5 561,-134.5"/>
<text text-anchor="middle" x="534" y="-117.9" style="font-family:Times New Roman;font-size:14.00;">input</text>
</g>
<!-- node_save -->
<g id="node21" class="node"><title>node_save</title>
<polygon style="fill:palegreen;stroke:black;stroke-width:2;" points="597,-86 471,-86 471,-82 467,-82 467,-78 471,-78 471,-52 467,-52 467,-48 471,-48 471,-44 597,-44 597,-86"/>
<polyline style="fill:none;stroke:black;stroke-width:2;" points="471,-82 475,-82 475,-78 471,-78 "/>
<polyline style="fill:none;stroke:black;stroke-width:2;" points="471,-52 475,-52 475,-48 471,-48 "/>
<text text-anchor="middle" x="534" y="-69.4" style="font-family:Times New Roman;font-size:14.00;">save</text>
<text text-anchor="middle" x="534" y="-52.4" style="font-family:Times New Roman;font-size:14.00;">[vid:ImageSave]</text>
</g>
<!-- save#input -->
<g id="node22" class="node"><title>save#input</title>
<polygon style="fill:plum;stroke:black;" points="561,-40.5 507,-40.5 507,-15.5 561,-15.5 561,-40.5"/>
<text text-anchor="middle" x="534" y="-23.9" style="font-family:Times New Roman;font-size:14.00;">input</text>
</g>
<!-- node_tr -->
<g id="node24" class="node"><title>node_tr</title>
<polygon style="fill:palegreen;stroke:black;stroke-width:2;" points="446,-126 284,-126 284,-122 280,-122 280,-118 284,-118 284,-92 280,-92 280,-88 284,-88 284,-84 446,-84 446,-126"/>
<polyline style="fill:none;stroke:black;stroke-width:2;" points="284,-122 288,-122 288,-118 284,-118 "/>
<polyline style="fill:none;stroke:black;stroke-width:2;" points="284,-92 288,-92 288,-88 284,-88 "/>
<text text-anchor="middle" x="365" y="-109.4" style="font-family:Times New Roman;font-size:14.00;">tr</text>
<text text-anchor="middle" x="365" y="-92.4" style="font-family:Times New Roman;font-size:14.00;">[vid:ImageTransform]</text>
</g>
<!-- tr#output -->
<g id="node26" class="node"><title>tr#output</title>
<polygon style="fill:#b9d3ee;stroke:black;" points="396,-52.5 334,-52.5 334,-27.5 396,-27.5 396,-52.5"/>
<text text-anchor="middle" x="365" y="-35.9" style="font-family:Times New Roman;font-size:14.00;">output</text>
</g>
<!-- tr#output&#45;&gt;view2#input -->
<g id="edge17" class="edge"><title>tr#output&#45;&gt;view2#input</title>
<path style="fill:none;stroke:black;" d="M397,-37C416,-38 439,-41 454,-56 467,-69 451,-82 462,-95 471,-105 485,-111 497,-115"/>
<polygon style="fill:black;stroke:black;" points="496.416,-118.479 507,-118 498.427,-111.774 496.416,-118.479"/>
</g>
<!-- tr#output&#45;&gt;save#input -->
<g id="edge19" class="edge"><title>tr#output&#45;&gt;save#input</title>
<path style="fill:none;stroke:black;" d="M397,-38C426,-35 467,-33 497,-31"/>
<polygon style="fill:black;stroke:black;" points="497.398,-34.4778 507,-30 496.701,-27.5125 497.398,-34.4778"/>
</g>
</g>
</svg>
