<?xml version="1.0" encoding="UTF-8" standalone="no"?>
<!DOCTYPE svg PUBLIC "-//W3C//DTD SVG 1.0//EN"
 "http://www.w3.org/TR/2001/REC-SVG-20010904/DTD/svg10.dtd" [
 <!ATTLIST svg xmlns:xlink CDATA #FIXED "http://www.w3.org/1999/xlink">
]>
<!-- Generated by Graphviz version 2.20.2 (Tue Mar &#160;2 19:03:41 UTC 2010)
     For user: (remonet) Remi Emonet -->
<!-- Title: Pipeline Pages: 1 -->
<svg width="248pt" height="110pt"
 viewBox="0.00 0.00 248.00 110.00" xmlns="http://www.w3.org/2000/svg" xmlns:xlink="http://www.w3.org/1999/xlink">
<g id="graph0" class="graph" transform="scale(1 1) rotate(0) translate(4 106)">
<title>Pipeline</title>
<polygon style="fill:white;stroke:white;" points="-4,4 -4,-106 244,-106 244,4 -4,4"/>
<g id="cluster2" class="cluster"><title>cluster_cons</title>
<polygon style="fill:none;stroke:black;" points="108,-8 108,-94 232,-94 232,-8 108,-8"/>
</g>
<g id="cluster3" class="cluster"><title>cluster_for</title>
<polygon style="fill:none;stroke:black;" points="8,-8 8,-94 100,-94 100,-8 8,-8"/>
</g>
<!-- node_cons -->
<g id="node2" class="node"><title>node_cons</title>
<polygon style="fill:palegreen;stroke:black;stroke-width:2;" points="224,-86 116,-86 116,-82 112,-82 112,-78 116,-78 116,-52 112,-52 112,-48 116,-48 116,-44 224,-44 224,-86"/>
<polyline style="fill:none;stroke:black;stroke-width:2;" points="116,-82 120,-82 120,-78 116,-78 "/>
<polyline style="fill:none;stroke:black;stroke-width:2;" points="116,-52 120,-52 120,-48 116,-48 "/>
<text text-anchor="middle" x="170" y="-69.4" style="font-family:Times New Roman;font-size:14.00;">cons</text>
<text text-anchor="middle" x="170" y="-52.4" style="font-family:Times New Roman;font-size:14.00;">[gsp:Console]</text>
</g>
<!-- cons#info -->
<g id="node3" class="node"><title>cons#info</title>
<polygon style="fill:plum;stroke:black;" points="197,-40.5 143,-40.5 143,-15.5 197,-15.5 197,-40.5"/>
<text text-anchor="middle" x="170" y="-23.9" style="font-family:Times New Roman;font-size:14.00;">info</text>
</g>
<!-- node_for -->
<g id="node5" class="node"><title>node_for</title>
<polygon style="fill:palegreen;stroke:black;stroke-width:2;" points="92,-86 16,-86 16,-82 12,-82 12,-78 16,-78 16,-52 12,-52 12,-48 16,-48 16,-44 92,-44 92,-86"/>
<polyline style="fill:none;stroke:black;stroke-width:2;" points="16,-82 20,-82 20,-78 16,-78 "/>
<polyline style="fill:none;stroke:black;stroke-width:2;" points="16,-52 20,-52 20,-48 16,-48 "/>
<text text-anchor="middle" x="54" y="-69.4" style="font-family:Times New Roman;font-size:14.00;">for</text>
<text text-anchor="middle" x="54" y="-52.4" style="font-family:Times New Roman;font-size:14.00;">[gsp:For]</text>
</g>
<!-- for#i -->
<g id="node6" class="node"><title>for#i</title>
<polygon style="fill:#b9d3ee;stroke:black;" points="81,-40.5 27,-40.5 27,-15.5 81,-15.5 81,-40.5"/>
<text text-anchor="middle" x="54" y="-23.9" style="font-family:Times New Roman;font-size:14.00;">i</text>
</g>
<!-- for#i&#45;&gt;cons#info -->
<g id="edge4" class="edge"><title>for#i&#45;&gt;cons#info</title>
<path style="fill:none;stroke:black;" d="M81,-28C96,-28 116,-28 133,-28"/>
<polygon style="fill:black;stroke:black;" points="133,-31.5001 143,-28 133,-24.5001 133,-31.5001"/>
</g>
</g>
</svg>
