<?xml version="1.0" encoding="UTF-8" standalone="no"?>
<!DOCTYPE svg PUBLIC "-//W3C//DTD SVG 1.0//EN"
 "http://www.w3.org/TR/2001/REC-SVG-20010904/DTD/svg10.dtd" [
 <!ATTLIST svg xmlns:xlink CDATA #FIXED "http://www.w3.org/1999/xlink">
]>
<!-- Generated by Graphviz version 2.20.2 (Tue Mar &#160;2 19:03:41 UTC 2010)
     For user: (remonet) Remi Emonet -->
<!-- Title: Pipeline Pages: 1 -->
<svg width="436pt" height="260pt"
 viewBox="0.00 0.00 436.00 260.00" xmlns="http://www.w3.org/2000/svg" xmlns:xlink="http://www.w3.org/1999/xlink">
<g id="graph0" class="graph" transform="scale(1 1) rotate(0) translate(4 256)">
<title>Pipeline</title>
<polygon style="fill:white;stroke:white;" points="-4,4 -4,-256 432,-256 432,4 -4,4"/>
<g id="cluster2" class="cluster"><title>cluster_cons</title>
<polygon style="fill:none;stroke:black;" points="127,-158 127,-244 251,-244 251,-158 127,-158"/>
</g>
<g id="cluster3" class="cluster"><title>cluster_for</title>
<polygon style="fill:none;stroke:black;" points="8,-36 8,-178 102,-178 102,-36 8,-36"/>
</g>
<g id="cluster4" class="cluster"><title>cluster_in</title>
<polygon style="fill:none;stroke:black;" points="110,-8 110,-150 268,-150 268,-8 110,-8"/>
</g>
<g id="cluster5" class="cluster"><title>cluster_view</title>
<polygon style="fill:none;stroke:black;" points="276,-36 276,-122 420,-122 420,-36 276,-36"/>
</g>
<!-- node_cons -->
<g id="node2" class="node"><title>node_cons</title>
<polygon style="fill:palegreen;stroke:black;stroke-width:2;" points="243,-236 135,-236 135,-232 131,-232 131,-228 135,-228 135,-202 131,-202 131,-198 135,-198 135,-194 243,-194 243,-236"/>
<polyline style="fill:none;stroke:black;stroke-width:2;" points="135,-232 139,-232 139,-228 135,-228 "/>
<polyline style="fill:none;stroke:black;stroke-width:2;" points="135,-202 139,-202 139,-198 135,-198 "/>
<text text-anchor="middle" x="189" y="-219.4" style="font-family:Times New Roman;font-size:14.00;">cons</text>
<text text-anchor="middle" x="189" y="-202.4" style="font-family:Times New Roman;font-size:14.00;">[gsp:Console]</text>
</g>
<!-- cons#info -->
<g id="node3" class="node"><title>cons#info</title>
<polygon style="fill:plum;stroke:black;" points="216,-190.5 162,-190.5 162,-165.5 216,-165.5 216,-190.5"/>
<text text-anchor="middle" x="189" y="-173.9" style="font-family:Times New Roman;font-size:14.00;">info</text>
</g>
<!-- node_for -->
<g id="node5" class="node"><title>node_for</title>
<polygon style="fill:palegreen;stroke:black;stroke-width:2;" points="93,-170 17,-170 17,-166 13,-166 13,-162 17,-162 17,-136 13,-136 13,-132 17,-132 17,-128 93,-128 93,-170"/>
<polyline style="fill:none;stroke:black;stroke-width:2;" points="17,-166 21,-166 21,-162 17,-162 "/>
<polyline style="fill:none;stroke:black;stroke-width:2;" points="17,-136 21,-136 21,-132 17,-132 "/>
<text text-anchor="middle" x="55" y="-153.4" style="font-family:Times New Roman;font-size:14.00;">for</text>
<text text-anchor="middle" x="55" y="-136.4" style="font-family:Times New Roman;font-size:14.00;">[gsp:For]</text>
</g>
<!-- for#i -->
<g id="node6" class="node"><title>for#i</title>
<polygon style="fill:#b9d3ee;stroke:black;" points="82,-124.5 28,-124.5 28,-99.5 82,-99.5 82,-124.5"/>
<text text-anchor="middle" x="55" y="-107.9" style="font-family:Times New Roman;font-size:14.00;">i</text>
</g>
<!-- for#i&#45;&gt;cons#info -->
<g id="edge6" class="edge"><title>for#i&#45;&gt;cons#info</title>
<path style="fill:none;stroke:black;" d="M82,-116C89,-119 97,-122 102,-128 110,-135 103,-143 110,-151 121,-162 137,-168 152,-172"/>
<polygon style="fill:black;stroke:black;" points="151.416,-175.479 162,-175 153.427,-168.774 151.416,-175.479"/>
</g>
<!-- for#output -->
<g id="node7" class="node"><title>for#output</title>
<polygon style="fill:#b9d3ee;stroke:black;" points="86,-96.5 24,-96.5 24,-71.5 86,-71.5 86,-96.5"/>
<text text-anchor="middle" x="55" y="-79.9" style="font-family:Times New Roman;font-size:14.00;">output</text>
</g>
<!-- in#input -->
<g id="node11" class="node"><title>in#input</title>
<polygon style="fill:plum;stroke:black;" points="216,-96.5 162,-96.5 162,-71.5 216,-71.5 216,-96.5"/>
<text text-anchor="middle" x="189" y="-79.9" style="font-family:Times New Roman;font-size:14.00;">input</text>
</g>
<!-- for#output&#45;&gt;in#input -->
<g id="edge8" class="edge"><title>for#output&#45;&gt;in#input</title>
<path style="fill:none;stroke:black;" d="M87,-84C107,-84 131,-84 152,-84"/>
<polygon style="fill:black;stroke:black;" points="152,-87.5001 162,-84 152,-80.5001 152,-87.5001"/>
</g>
<!-- for#interrupt -->
<g id="node8" class="node"><title>for#interrupt</title>
<polygon style="fill:plum;stroke:black;" points="94,-68.5 16,-68.5 16,-43.5 94,-43.5 94,-68.5"/>
<text text-anchor="middle" x="55" y="-51.9" style="font-family:Times New Roman;font-size:14.00;">interrupt</text>
</g>
<!-- node_in -->
<g id="node10" class="node"><title>node_in</title>
<polygon style="fill:palegreen;stroke:black;stroke-width:2;" points="259,-142 119,-142 119,-138 115,-138 115,-134 119,-134 119,-108 115,-108 115,-104 119,-104 119,-100 259,-100 259,-142"/>
<polyline style="fill:none;stroke:black;stroke-width:2;" points="119,-138 123,-138 123,-134 119,-134 "/>
<polyline style="fill:none;stroke:black;stroke-width:2;" points="119,-108 123,-108 123,-104 119,-104 "/>
<text text-anchor="middle" x="189" y="-125.4" style="font-family:Times New Roman;font-size:14.00;">in</text>
<text text-anchor="middle" x="189" y="-108.4" style="font-family:Times New Roman;font-size:14.00;">[gst:ImageSource]</text>
</g>
<!-- in#output -->
<g id="node12" class="node"><title>in#output</title>
<polygon style="fill:#b9d3ee;stroke:black;" points="220,-68.5 158,-68.5 158,-43.5 220,-43.5 220,-68.5"/>
<text text-anchor="middle" x="189" y="-51.9" style="font-family:Times New Roman;font-size:14.00;">output</text>
</g>
<!-- view#input -->
<g id="node16" class="node"><title>view#input</title>
<polygon style="fill:plum;stroke:black;" points="375,-68.5 321,-68.5 321,-43.5 375,-43.5 375,-68.5"/>
<text text-anchor="middle" x="348" y="-51.9" style="font-family:Times New Roman;font-size:14.00;">input</text>
</g>
<!-- in#output&#45;&gt;view#input -->
<g id="edge10" class="edge"><title>in#output&#45;&gt;view#input</title>
<path style="fill:none;stroke:black;" d="M221,-56C247,-56 283,-56 311,-56"/>
<polygon style="fill:black;stroke:black;" points="311,-59.5001 321,-56 311,-52.5001 311,-59.5001"/>
</g>
<!-- in#end -->
<g id="node13" class="node"><title>in#end</title>
<polygon style="fill:#b9d3ee;stroke:black;" points="216,-40.5 162,-40.5 162,-15.5 216,-15.5 216,-40.5"/>
<text text-anchor="middle" x="189" y="-23.9" style="font-family:Times New Roman;font-size:14.00;">end</text>
</g>
<!-- in#end&#45;&gt;for#interrupt -->
<g id="edge12" class="edge"><title>in#end&#45;&gt;for#interrupt</title>
<path style="fill:none;stroke:black;" d="M162,-34C147,-37 128,-41 110,-44 108,-44 106,-45 104,-46"/>
<polygon style="fill:black;stroke:black;" points="103.119,-42.6067 94,-48 104.492,-49.4708 103.119,-42.6067"/>
</g>
<!-- node_view -->
<g id="node15" class="node"><title>node_view</title>
<polygon style="fill:palegreen;stroke:black;stroke-width:2;" points="412,-114 284,-114 284,-110 280,-110 280,-106 284,-106 284,-80 280,-80 280,-76 284,-76 284,-72 412,-72 412,-114"/>
<polyline style="fill:none;stroke:black;stroke-width:2;" points="284,-110 288,-110 288,-106 284,-106 "/>
<polyline style="fill:none;stroke:black;stroke-width:2;" points="284,-80 288,-80 288,-76 284,-76 "/>
<text text-anchor="middle" x="348" y="-97.4" style="font-family:Times New Roman;font-size:14.00;">view</text>
<text text-anchor="middle" x="348" y="-80.4" style="font-family:Times New Roman;font-size:14.00;">[vid:ImageView]</text>
</g>
</g>
</svg>
